<?xml version="1.0" encoding="utf-8"?>
<!-- Generator: Adobe Illustrator 26.4.1, SVG Export Plug-In . SVG Version: 6.00 Build 0)  -->
<svg version="1.1" id="Layer_1" xmlns="http://www.w3.org/2000/svg" xmlns:xlink="http://www.w3.org/1999/xlink" x="0px" y="0px"
	 viewBox="0 0 34 34" style="enable-background:new 0 0 34 34;" xml:space="preserve">
<style type="text/css">
	.st0{fill:#FFFFFF;}
</style>
<g>
	<path class="st0" d="M17,33.45c-9.09,0-16.49-7.4-16.49-16.49C0.51,7.86,7.91,0.46,17,0.46c9.09,0,16.49,7.4,16.49,16.49
		C33.49,26.05,26.09,33.45,17,33.45z M17,2.96c-7.72,0-13.99,6.28-13.99,13.99c0,7.71,6.28,13.99,13.99,13.99
		c7.71,0,13.99-6.28,13.99-13.99C30.99,9.24,24.71,2.96,17,2.96z"/>
</g>
<g>
	<path class="st0" d="M17,22.25c-0.33,0-0.65-0.13-0.88-0.37l-5.71-5.71c-0.49-0.49-0.49-1.28,0-1.77c0.49-0.49,1.28-0.49,1.77,0
		L17,19.24l4.83-4.83c0.49-0.49,1.28-0.49,1.77,0c0.49,0.49,0.49,1.28,0,1.77l-5.71,5.71C17.65,22.12,17.33,22.25,17,22.25z"/>
</g>
</svg>
